<svg class="svg-icon" style="width: 1em; height: 1em;vertical-align: middle; overflow: hidden;" viewBox="0 0 1024 1024" version="1.1" xmlns="http://www.w3.org/2000/svg"><path d="M793.6 282.453333C920.746667 282.453333 1024 384 1024 512c0 126.293333-103.253333 229.12-230.4 229.12-61.866667 0-119.466667-23.893333-162.986667-66.986667L512 569.173333l-120.746667 107.093334c-41.386667 41.386667-99.413333 65.28-160.853333 65.28C103.253333 741.546667 0 638.293333 0 512s103.253333-229.546667 230.4-229.546667c61.44 0 119.466667 23.893333 162.986667 67.413334L512 454.826667l120.746667-107.093334c41.386667-41.386667 99.413333-65.28 160.853333-65.28M332.8 613.973333L448 512 334.506667 411.733333c-29.013333-29.013333-65.28-43.946667-104.106667-43.946666C150.613333 367.786667 85.333333 432.213333 85.333333 512c0 79.786667 65.28 144.213333 145.066667 144.213333 38.826667 0 75.093333-14.933333 102.4-42.24m358.4-203.946666L576 512l113.493333 100.266667c29.013333 29.013333 65.706667 43.946667 104.106667 43.946666 79.786667 0 145.066667-64.426667 145.066667-144.213333 0-79.786667-65.28-144.213333-145.066667-144.213333-38.826667 0-75.093333 14.933333-102.4 42.24z" style="opacity:1;fill:#1a1a1a;fill-opacity:1;stroke:#dd4d0d;stroke-width:1.28497;stroke-miterlimit:4;stroke-dasharray:none;stroke-dashoffset:0;stroke-opacity:1"/></svg>